# xmcd
#
# Track frame offsets: 
#        225
#        17884
#        35422
#        51654
#        63070
#        80041
#        94157
#
# Disc length: 1488 seconds
#
# Revision: 0
# Processed by: cddbd v1.5.2PL0 Copyright (c) Steve Scherf et al.
# Submitted via: ExactAudioCopy v1.3
#
DISCID=5a05cd07
DTITLE=TIM RUSS - KUSHANGAZA
DYEAR=2000
DGENRE=Blues
TTITLE0=Kushangaza
TTITLE1=Soapbox Preacher
TTITLE2=The Door
TTITLE3=Crossfire
TTITLE4=We...
TTITLE5=Hideaway
TTITLE6=Holiday Inn
EXTD=
EXTT0=
EXTT1=
EXTT2=
EXTT3=
EXTT4=
EXTT5=
EXTT6=
PLAYORDER=
